<?xml version="1.0" encoding="UTF-8"?>
<svg width="24px" height="24px" viewBox="0 0 24 24" version="1.1" xmlns="http://www.w3.org/2000/svg" xmlns:xlink="http://www.w3.org/1999/xlink">
    <!-- Generator: Sketch 60.1 (88133) - https://sketch.com -->
    <title>noun_edit_958193</title>
    <desc>Created with Sketch.</desc>
    <g id="Page-1" stroke="none" stroke-width="1" fill="none" fill-rule="evenodd">
        <g id="Default-" transform="translate(-1118.000000, -30.000000)" fill="#0F0017" fill-rule="nonzero">
            <g id="Group-2" transform="translate(1118.000000, 29.000000)">
                <g id="noun_edit_958193" transform="translate(0.000000, 1.000000)">
                    <path d="M22.9333333,2.63703704 L21.3333333,1.00740741 C20.2962963,-0.0296296296 18.6074074,-0.0296296296 17.5703704,1.00740741 L2.37037037,16.1777778 C2.34074074,16.2074074 2.31111111,16.237037 2.28148148,16.2666667 C2.28148148,16.2666667 2.28148148,16.2962963 2.25185185,16.2962963 C2.22222222,16.3259259 2.22222222,16.3555556 2.19259259,16.3851852 C2.19259259,16.3851852 2.19259259,16.3851852 2.19259259,16.4148148 L0.207407407,22.9925926 C0.148148148,23.2 0.207407407,23.437037 0.355555556,23.5851852 C0.474074074,23.7037037 0.622222222,23.762963 0.77037037,23.762963 C0.82962963,23.762963 0.888888889,23.762963 0.948148148,23.7333333 L7.4962963,21.7185185 C7.4962963,21.7185185 7.4962963,21.7185185 7.52592593,21.7185185 C7.55555556,21.7185185 7.58518519,21.6888889 7.64444444,21.6592593 C7.64444444,21.6592593 7.67407407,21.6592593 7.67407407,21.6592593 C7.7037037,21.6296296 7.73333333,21.6 7.76296296,21.5703704 L22.9333333,6.4 C23.9703704,5.36296296 23.9703704,3.67407407 22.9333333,2.63703704 Z M1.68888889,22.2814815 L3.08148148,17.7481481 L6.22222222,20.8592593 L1.68888889,22.2814815 Z M7.34814815,20.2962963 L3.64444444,16.6222222 L15.5555556,4.71111111 L19.2592593,8.38518519 L7.34814815,20.2962963 Z M22.1037037,5.57037037 L20.1185185,7.55555556 L16.3851852,3.85185185 L18.3703704,1.86666667 C18.637037,1.6 19.0222222,1.42222222 19.4074074,1.42222222 C19.7925926,1.42222222 20.1777778,1.57037037 20.4444444,1.86666667 L22.0444444,3.46666667 C22.6666667,4.02962963 22.6666667,4.97777778 22.1037037,5.57037037 Z" id="Shape"></path>
                </g>
            </g>
        </g>
    </g>
</svg>