<?xml version="1.0" encoding="UTF-8"?>
<svg width="17px" height="24px" viewBox="0 0 17 24" version="1.1" xmlns="http://www.w3.org/2000/svg" xmlns:xlink="http://www.w3.org/1999/xlink">
    <!-- Generator: Sketch 60.1 (88133) - https://sketch.com -->
    <title> Icon /Brand 16-32px / Attributes / Trash</title>
    <desc>Created with Sketch.</desc>
    <g id="Page-1" stroke="none" stroke-width="1" fill="none" fill-rule="evenodd">
        <g id="Default-" transform="translate(-1173.000000, -29.000000)">
            <g id="Group-2" transform="translate(1118.000000, 29.000000)">
                <g id="-Icon-/Brand-16-32px-/-Attributes-/-Trash" transform="translate(52.000000, 0.000000)">
                    <path d="M16.0503,13.24515 L16.0653,13.24515 L16.0053,13.47015 L16.0053,13.48515 C15.9453,13.74015 15.8553,13.99515 15.7503,14.23515 C15.2853,15.45015 14.4153,16.45515 13.2738,17.14515 C12.8703,17.38515 12.4353,17.58015 12.0003,17.71365 C10.9503,18.06015 9.8103,18.08865 8.7003,17.82015 L8.6538,17.80515 C8.5188,17.76015 8.3703,17.71365 8.2353,17.65365 C7.2003,17.32515 6.2088,16.89015 5.2503,16.38015 L5.2503,3.75015 L9.0003,3.75015 C9.0003,2.10015 10.3503,0.75015 12.0003,0.75015 C13.6488,0.75015 15.0003,2.10015 15.0003,3.75015 L15.4953,3.75015 C16.5453,6.87015 16.6953,10.14015 16.0503,13.24515" id="🎨-Blob-colour"></path>
                    <path d="M17.25,3.75 L17.25,22.5 C17.25,22.92 16.9566667,23.25 16.5833333,23.25 L5.91666667,23.25 C5.54333333,23.25 5.25,22.92 5.25,22.5 L5.25,3.75 L17.25,3.75 Z M8.25,3.75 C8.25,2.1 9.6,0.75 11.25,0.75 C12.9,0.75 14.25,2.1 14.25,3.75 M18.75,3.75 L15.495,3.75 L15,3.75 L9,3.75 L5.25,3.75 L3.75,3.75 L18.75,3.75 Z M11.25,7.5 L11.25,19.5 M8.25,7.5 L8.25,19.5 M14.2770996,7.52911377 L14.25,19.5" id="🎨-Outline-colour" stroke="#0F0017" stroke-width="1.5" stroke-linecap="round" stroke-linejoin="round"></path>
                </g>
            </g>
        </g>
    </g>
</svg>